<svg width="1200" height="400" xmlns="http://www.w3.org/2000/svg">
	 <defs>
      <linearGradient id="bgGradient" x1="0%" y1="0%" x2="100%" y2="0%">
          <stop offset="0%" stop-color="#1e3c72"/>
          <stop offset="100%" stop-color="#2a5298"/>
      </linearGradient>
    </defs>
	  <rect width="1200" height="400" fill="url(#bgGradient)"/>
	 <g transform="translate(600,120) scale(2)">
      <g transform="translate(0,-2.5)">
	        <path d="M 0,10 C -10,0 -20,0 -30,10 L -30,30 C -20,20 10,20 0,30 Z" fill="#ffffff" opacity="0.9"/>
          <path d="M 0,10 C 10,0 20,0 30,10 L 30,30 C 20,20 10,20 0,30 Z" fill="#ffffff" opacity="0.9"/>
          <line x1="0" y1="10" x2="0" y2="30" stroke="#cccccc" stroke-width="2"/>
          <circle cx="-20" cy="-10" r="2" fill="#ffcc00"/>
          <circle cx="0" cy="-15" r="2" fill="#ffcc00"/>
          <circle cx="20" cy="-10" r="2" fill="#ffcc00"/>
          <circle cx="10" cy="-20" r="1.5" fill="#ffcc00"/>
          <circle cx="-10" cy="-18" r="1.5" fill="#fffcc00"/>
          <circle cx="5" cy="-25" r="1" fill="#ffcc00"/>
      </g>
    </g>
	  <text x="600" y="280" text-anchor="middle" font-family="Arial, sans-serif" font-size="60" fill="#ffffff" font-weight="bold">
    StoryVerse</text>
</svg>